<svg xmlns="http://www.w3.org/2000/svg" viewBox="0 0 800 500" width="800" height="500" preserveAspectRatio="xMidYMid slice"><defs><linearGradient id="sky" x1="0" y1="0" x2="0" y2="1"><stop offset="0" stop-color="#bcd6d0"/><stop offset="0.55" stop-color="#dfeae2"/><stop offset="1" stop-color="#f3dfa9"/></linearGradient><radialGradient id="glow"><stop offset="0" stop-color="#e0a526" stop-opacity="0.75"/><stop offset="1" stop-color="#e0a526" stop-opacity="0"/></radialGradient></defs><rect width="800" height="500" fill="url(#sky)"/><circle cx="640" cy="180" r="104" fill="url(#glow)"/><circle cx="640" cy="180" r="26" fill="#e0a526"/><g fill="#edf3f1" opacity="0.7"><ellipse cx="520" cy="80" rx="54.0" ry="9.9"/><ellipse cx="545.2" cy="72.8" rx="32.4" ry="9.9"/><ellipse cx="493.0" cy="75.5" rx="27.0" ry="8.1"/></g><path d="M0.0,313.7 L10.0,313.5 L20.0,313.3 L30.0,313.1 L40.0,313.1 L50.0,313.2 L60.0,313.4 L70.0,313.7 L80.0,314.1 L90.0,314.5 L100.0,315.0 L110.0,315.4 L120.0,315.7 L130.0,316.0 L140.0,316.1 L150.0,316.0 L160.0,315.8 L170.0,315.3 L180.0,314.8 L190.0,314.1 L200.0,313.3 L210.0,312.4 L220.0,311.5 L230.0,310.6 L240.0,309.8 L250.0,309.0 L260.0,308.4 L270.0,308.0 L280.0,307.6 L290.0,307.4 L300.0,307.4 L310.0,307.4 L320.0,307.5 L330.0,307.6 L340.0,307.7 L350.0,307.7 L360.0,307.7 L370.0,307.6 L380.0,307.4 L390.0,307.2 L400.0,306.8 L410.0,306.5 L420.0,306.0 L430.0,305.7 L440.0,305.4 L450.0,305.1 L460.0,305.1 L470.0,305.2 L480.0,305.4 L490.0,305.9 L500.0,306.6 L510.0,307.4 L520.0,308.4 L530.0,309.5 L540.0,310.6 L550.0,311.8 L560.0,313.0 L570.0,314.2 L580.0,315.2 L590.0,316.1 L600.0,316.9 L610.0,317.6 L620.0,318.2 L630.0,318.6 L640.0,319.0 L650.0,319.3 L660.0,319.7 L670.0,320.1 L680.0,320.5 L690.0,321.0 L700.0,321.6 L710.0,322.3 L720.0,323.1 L730.0,324.0 L740.0,324.9 L750.0,325.9 L760.0,326.8 L770.0,327.6 L780.0,328.4 L790.0,329.0 L800.0,329.4 L800.0,500.0 L0.0,500.0 Z" fill="#8fb6b1" /><path d="M120.0,420.0 L120.0,398.4 L128.0,381.0 L136.0,363.6 L144.0,351.7 L152.0,339.2 L160.0,327.6 L168.0,318.4 L176.0,309.0 L184.0,299.5 L192.0,288.9 L200.0,283.3 L208.0,272.9 L216.0,267.3 L224.0,258.4 L232.0,250.6 L240.0,246.2 L248.0,238.2 L256.0,233.5 L264.0,230.7 L272.0,222.0 L280.0,219.9 L288.0,215.4 L296.0,212.3 L304.0,205.4 L312.0,201.1 L320.0,199.6 L328.0,197.5 L336.0,195.6 L344.0,190.2 L352.0,189.3 L360.0,186.7 L368.0,183.6 L376.0,183.0 L384.0,183.8 L392.0,182.0 L400.0,181.9 L408.0,181.4 L416.0,179.4 L424.0,179.8 L432.0,181.9 L440.0,180.4 L448.0,180.9 L456.0,181.9 L464.0,183.4 L472.0,184.3 L480.0,185.3 L488.0,188.9 L496.0,192.9 L504.0,192.9 L512.0,195.1 L520.0,200.3 L528.0,202.8 L536.0,205.6 L544.0,210.9 L552.0,213.5 L560.0,217.5 L568.0,225.7 L576.0,230.4 L584.0,235.8 L592.0,240.5 L600.0,245.3 L608.0,251.9 L616.0,259.2 L624.0,264.5 L632.0,273.2 L640.0,282.7 L648.0,287.8 L656.0,296.5 L664.0,307.1 L672.0,317.9 L680.0,329.0 L688.0,338.0 L696.0,352.8 L704.0,365.2 L712.0,379.3 L720.0,399.9 L720.0,420.0 L720.0,500.0 L120.0,500.0 Z" fill="#2c7a6a" /><path d="M420.0,190.0 L424.0,179.8 L432.0,181.9 L440.0,180.4 L448.0,180.9 L456.0,181.9 L464.0,183.4 L472.0,184.3 L480.0,185.3 L488.0,188.9 L496.0,192.9 L504.0,192.9 L512.0,195.1 L520.0,200.3 L528.0,202.8 L536.0,205.6 L544.0,210.9 L552.0,213.5 L560.0,217.5 L568.0,225.7 L576.0,230.4 L584.0,235.8 L592.0,240.5 L600.0,245.3 L608.0,251.9 L616.0,259.2 L624.0,264.5 L632.0,273.2 L640.0,282.7 L648.0,287.8 L656.0,296.5 L664.0,307.1 L672.0,317.9 L680.0,329.0 L688.0,338.0 L696.0,352.8 L704.0,365.2 L712.0,379.3 L720.0,399.9 L720.0,420.0 L560.0,420.0 L470.0,260.0 Z" fill="#0f3b4c" opacity="0.55"/><g fill="#1c5a4a"><rect x="291.0" y="294.8" width="3.7" height="16.8"/><circle cx="292.9" cy="287.4" r="14.1"/><circle cx="283.9" cy="293.0" r="9.7"/><circle cx="302.6" cy="292.2" r="9.7"/></g><g fill="#1c5a4a"><rect x="266.1" y="252.1" width="3.9" height="17.5"/><circle cx="268.0" cy="244.3" r="14.8"/><circle cx="258.7" cy="250.2" r="10.1"/><circle cx="278.1" cy="249.4" r="10.1"/></g><g fill="#1c5a4a"><rect x="568.3" y="295.0" width="3.3" height="14.9"/><circle cx="569.9" cy="288.3" r="12.6"/><circle cx="562.0" cy="293.3" r="8.6"/><circle cx="578.5" cy="292.6" r="8.6"/></g><g fill="#1c5a4a"><rect x="665.6" y="359.3" width="3.7" height="16.5"/><circle cx="667.4" cy="352.0" r="13.9"/><circle cx="658.6" cy="357.5" r="9.5"/><circle cx="676.9" cy="356.8" r="9.5"/></g><g fill="#1c5a4a"><rect x="336.3" y="226.0" width="3.9" height="17.5"/><circle cx="338.2" cy="218.2" r="14.8"/><circle cx="328.9" cy="224.0" r="10.1"/><circle cx="348.4" cy="223.3" r="10.1"/></g><g fill="#1c5a4a"><rect x="516.3" y="234.7" width="2.6" height="11.8"/><circle cx="517.6" cy="229.5" r="10.0"/><circle cx="511.3" cy="233.4" r="6.8"/><circle cx="524.4" cy="232.9" r="6.8"/></g><g fill="#1c5a4a"><rect x="179.1" y="403.1" width="2.8" height="12.7"/><circle cx="180.5" cy="397.5" r="10.7"/><circle cx="173.8" cy="401.7" r="7.3"/><circle cx="187.8" cy="401.1" r="7.3"/></g><g fill="#1c5a4a"><rect x="501.1" y="256.1" width="2.9" height="13.0"/><circle cx="502.6" cy="250.3" r="11.0"/><circle cx="495.6" cy="254.6" r="7.5"/><circle cx="510.1" cy="254.0" r="7.5"/></g><g fill="#1c5a4a"><rect x="614.0" y="332.5" width="3.8" height="17.1"/><circle cx="615.9" cy="324.9" r="14.5"/><circle cx="606.7" cy="330.6" r="9.9"/><circle cx="625.8" cy="329.8" r="9.9"/></g><g fill="#1c5a4a"><rect x="494.6" y="227.6" width="3.0" height="13.4"/><circle cx="496.1" cy="221.7" r="11.3"/><circle cx="488.9" cy="226.1" r="7.8"/><circle cx="503.9" cy="225.5" r="7.8"/></g><g fill="#1c5a4a"><rect x="179.4" y="344.0" width="3.5" height="15.7"/><circle cx="181.1" cy="337.0" r="13.3"/><circle cx="172.7" cy="342.3" r="9.1"/><circle cx="190.2" cy="341.6" r="9.1"/></g><g fill="#1c5a4a"><rect x="384.3" y="245.9" width="2.9" height="12.8"/><circle cx="385.7" cy="240.2" r="10.8"/><circle cx="378.9" cy="244.5" r="7.4"/><circle cx="393.1" cy="243.9" r="7.4"/></g><g fill="#1c5a4a"><rect x="270.5" y="318.8" width="3.8" height="17.1"/><circle cx="272.4" cy="311.2" r="14.5"/><circle cx="263.3" cy="316.9" r="9.9"/><circle cx="282.3" cy="316.2" r="9.9"/></g><g fill="#1c5a4a"><rect x="327.5" y="229.7" width="3.2" height="14.5"/><circle cx="329.1" cy="223.2" r="12.2"/><circle cx="321.4" cy="228.1" r="8.4"/><circle cx="337.4" cy="227.4" r="8.4"/></g><g fill="#1c5a4a"><rect x="489.3" y="243.2" width="3.7" height="16.9"/><circle cx="491.2" cy="235.7" r="14.2"/><circle cx="482.2" cy="241.3" r="9.7"/><circle cx="501.0" cy="240.5" r="9.7"/></g><g fill="#1c5a4a"><rect x="278.2" y="264.6" width="3.9" height="17.5"/><circle cx="280.2" cy="256.8" r="14.7"/><circle cx="270.8" cy="262.6" r="10.1"/><circle cx="290.2" cy="261.9" r="10.1"/></g><g fill="#1c5a4a"><rect x="311.9" y="291.0" width="3.1" height="13.9"/><circle cx="313.5" cy="284.8" r="11.7"/><circle cx="306.1" cy="289.4" r="8.0"/><circle cx="321.5" cy="288.8" r="8.0"/></g><g fill="#1c5a4a"><rect x="298.2" y="301.6" width="3.6" height="16.0"/><circle cx="300.0" cy="294.5" r="13.5"/><circle cx="291.5" cy="299.9" r="9.2"/><circle cx="309.2" cy="299.2" r="9.2"/></g><g fill="#1c5a4a"><rect x="296.6" y="257.5" width="3.9" height="17.6"/><circle cx="298.5" cy="249.7" r="14.8"/><circle cx="289.1" cy="255.5" r="10.2"/><circle cx="308.7" cy="254.8" r="10.2"/></g><g fill="#1c5a4a"><rect x="599.1" y="281.5" width="2.8" height="12.5"/><circle cx="600.5" cy="276.0" r="10.6"/><circle cx="593.8" cy="280.2" r="7.2"/><circle cx="607.8" cy="279.6" r="7.2"/></g><g fill="#1c5a4a"><rect x="202.9" y="353.8" width="3.1" height="14.0"/><circle cx="204.5" cy="347.5" r="11.8"/><circle cx="197.0" cy="352.2" r="8.1"/><circle cx="212.6" cy="351.6" r="8.1"/></g><g fill="#1c5a4a"><rect x="469.0" y="213.9" width="2.9" height="13.2"/><circle cx="470.5" cy="208.1" r="11.2"/><circle cx="463.5" cy="212.5" r="7.6"/><circle cx="478.2" cy="211.9" r="7.6"/></g><path d="M0.0,430.3 L10.0,430.7 L20.0,431.2 L30.0,431.4 L40.0,431.5 L50.0,431.3 L60.0,431.1 L70.0,430.8 L80.0,430.6 L90.0,430.5 L100.0,430.8 L110.0,431.2 L120.0,431.7 L130.0,432.3 L140.0,432.8 L150.0,433.1 L160.0,433.3 L170.0,433.2 L180.0,433.1 L190.0,433.0 L200.0,432.9 L210.0,433.1 L220.0,433.5 L230.0,434.0 L240.0,434.6 L250.0,435.2 L260.0,435.5 L270.0,435.7 L280.0,435.6 L290.0,435.3 L300.0,434.9 L310.0,434.5 L320.0,434.2 L330.0,434.0 L340.0,434.0 L350.0,434.1 L360.0,434.2 L370.0,434.2 L380.0,433.9 L390.0,433.5 L400.0,432.7 L410.0,431.8 L420.0,430.9 L430.0,429.9 L440.0,429.2 L450.0,428.6 L460.0,428.2 L470.0,427.9 L480.0,427.7 L490.0,427.4 L500.0,426.9 L510.0,426.2 L520.0,425.4 L530.0,424.6 L540.0,423.7 L550.0,423.1 L560.0,422.7 L570.0,422.5 L580.0,422.6 L590.0,422.9 L600.0,423.2 L610.0,423.5 L620.0,423.6 L630.0,423.6 L640.0,423.5 L650.0,423.4 L660.0,423.3 L670.0,423.5 L680.0,423.9 L690.0,424.6 L700.0,425.5 L710.0,426.5 L720.0,427.4 L730.0,428.2 L740.0,428.8 L750.0,429.2 L760.0,429.4 L770.0,429.7 L780.0,429.9 L790.0,430.3 L800.0,430.9 L800.0,500.0 L0.0,500.0 Z" fill="#1c5a4a" /><g fill="#1b2a30"><path d="M96.5,470.0 L98.5,425.0 L101.5,425.0 L103.5,470.0 Z"/><ellipse cx="100.0" cy="420.0" rx="65.0" ry="13.5"/><ellipse cx="72.5" cy="428.0" rx="35.0" ry="10.0"/><ellipse cx="130.0" cy="426.0" rx="35.0" ry="10.0"/></g><g fill="#1b2a30"><path d="M697.5,476.0 L698.9,443.6 L701.1,443.6 L702.5,476.0 Z"/><ellipse cx="700.0" cy="440.0" rx="46.8" ry="9.7"/><ellipse cx="680.2" cy="445.8" rx="25.2" ry="7.2"/><ellipse cx="721.6" cy="444.3" rx="25.2" ry="7.2"/></g><g fill="#edf3f1" opacity="0.75"><ellipse cx="240" cy="300" rx="102.0" ry="18.7"/><ellipse cx="287.6" cy="286.4" rx="61.199999999999996" ry="18.7"/><ellipse cx="189.0" cy="291.5" rx="51.0" ry="15.299999999999999"/></g><g fill="#edf3f1" opacity="0.7"><ellipse cx="600" cy="330" rx="90.0" ry="16.5"/><ellipse cx="642.0" cy="318.0" rx="54.0" ry="16.5"/><ellipse cx="555.0" cy="322.5" rx="45.0" ry="13.5"/></g><path d="M152.4092380039853,119.28458048883726 q7.1675254559163335,-9.556700607888445 14.335050911832667,0 q7.1675254559163335,-9.556700607888445 14.335050911832667,0" fill="none" stroke="#1b2a30" stroke-width="2.4" stroke-linecap="round" opacity="0.8"/><path d="M235.87873923801885,108.7017320993042 q6.590537219135999,-8.787382958848 13.181074438271999,0 q6.590537219135999,-8.787382958848 13.181074438271999,0" fill="none" stroke="#1b2a30" stroke-width="2.2" stroke-linecap="round" opacity="0.8"/><path d="M171.9895076338886,137.42887043559807 q5.033373957652927,-6.711165276870569 10.066747915305854,0 q5.033373957652927,-6.711165276870569 10.066747915305854,0" fill="none" stroke="#1b2a30" stroke-width="1.7" stroke-linecap="round" opacity="0.8"/></svg>